#N canvas 174 169 1168 422 10;
#X obj 1034 -304 loadbang;
#X obj 1034 -278 s loadbang;
#X obj 1009 -304 bng 15 250 50 0 empty empty empty 17 7 0 10 -262144
-1 -1;
#X obj 10 -309 cnv 15 200 150 empty empty empty 20 12 0 14 -261234
-66577 0;
#N canvas 0 197 995 340 vco 0;
#X obj 292 61 osc~;
#X obj 346 62 phasor~;
#X obj 411 62 phasor~;
#X obj 411 99 *~ 2;
#X obj 341 255 *~;
#X obj 242 258 *~;
#X obj 413 253 *~;
#X obj 661 60 phasor~;
#X obj 661 97 *~ 2;
#X text 425 44 triangle;
#X text 699 42 square;
#X obj 300 294 +~;
#X obj 373 296 +~;
#X obj 438 276 +~;
#X obj 661 261 *~;
#X obj 331 322 outlet~;
#X obj 412 3 inlet;
#X msg 312 229 0;
#X msg 383 226 0;
#X msg 503 221 0;
#X msg 710 232 0;
#X msg 276 227 1;
#X msg 351 226 1;
#X msg 431 219 1;
#X msg 678 231 1;
#X obj 499 5 inlet;
#X obj 551 6 inlet;
#X obj 602 4 inlet;
#X obj 652 3 inlet;
#X obj 419 27 / 2;
#X obj 411 135 expr~ if($v1 < 1 \, $v1 \, -1*($v1 - 1) + 1) \;;
#X obj 682 134 expr~ if($v1 < 1 \, 0 \, 1) \;;
#X connect 0 0 5 0;
#X connect 1 0 4 0;
#X connect 2 0 3 0;
#X connect 3 0 30 0;
#X connect 4 0 12 0;
#X connect 5 0 11 0;
#X connect 6 0 13 0;
#X connect 7 0 8 0;
#X connect 8 0 31 0;
#X connect 11 0 15 0;
#X connect 12 0 11 1;
#X connect 13 0 12 1;
#X connect 14 0 13 1;
#X connect 16 0 0 0;
#X connect 16 0 29 0;
#X connect 16 0 2 0;
#X connect 17 0 5 1;
#X connect 18 0 4 1;
#X connect 19 0 6 1;
#X connect 20 0 14 1;
#X connect 21 0 5 1;
#X connect 22 0 4 1;
#X connect 23 0 6 1;
#X connect 24 0 14 1;
#X connect 25 0 21 0;
#X connect 25 0 18 0;
#X connect 25 0 19 0;
#X connect 25 0 20 0;
#X connect 26 0 17 0;
#X connect 26 0 22 0;
#X connect 26 0 19 0;
#X connect 26 0 20 0;
#X connect 27 0 17 0;
#X connect 27 0 18 0;
#X connect 27 0 20 0;
#X connect 27 0 23 0;
#X connect 28 0 17 0;
#X connect 28 0 18 0;
#X connect 28 0 19 0;
#X connect 28 0 24 0;
#X connect 29 0 1 0;
#X connect 29 0 7 0;
#X connect 30 0 6 0;
#X connect 31 0 14 0;
#X restore 25 -217 pd vco;
#X obj 134 -287 bng 15 250 50 0 empty empty empty 17 7 0 10 -262144
-1 -1;
#X obj 134 -268 bng 15 250 50 0 empty empty empty 17 7 0 10 -262144
-1 -1;
#X obj 133 -250 bng 15 250 50 0 empty empty empty 17 7 0 10 -262144
-1 -1;
#X obj 133 -231 bng 15 250 50 0 empty empty empty 17 7 0 10 -262144
-1 -1;
#X floatatom 24 -250 5 0 0 0 - - -;
#X text 157 -251 triangle;
#X text 157 -233 square;
#X text 159 -290 sin;
#X text 159 -271 phasor;
#X text 18 -307 VCO;
#X obj 23 -277 r vcoFreq;
#X obj 25 -181 s~ vco;
#X obj 219 -308 cnv 15 200 150 empty empty empty 20 12 0 14 -233017
-66577 0;
#X obj 263 -305 r knob1;
#X obj 220 -208 lores~;
#X floatatom 370 -257 5 0 0 0 - - -;
#X obj 372 -304 r knob2;
#X obj 220 -257 r~ vco;
#X text 225 -305 VCF;
#X obj 220 -183 s~ vcf;
#X obj 426 -308 cnv 15 200 250 empty empty empty 20 12 0 14 -204800
-66577 0;
#X text 573 -209 triangle;
#X text 577 -251 sin;
#X text 575 -232 phasor;
#X obj 557 -250 bng 15 250 50 0 empty empty empty 17 7 0 10 -262144
-1 -1;
#X obj 557 -229 bng 15 250 50 0 empty empty empty 17 7 0 10 -262144
-1 -1;
#X obj 557 -207 bng 15 250 50 0 empty empty empty 17 7 0 10 -262144
-1 -1;
#X obj 557 -187 bng 15 250 50 0 empty empty empty 17 7 0 10 -262144
-1 -1;
#N canvas 180 345 995 340 lfo 0;
#X obj 292 61 osc~;
#X obj 346 62 phasor~;
#X obj 411 62 phasor~;
#X obj 411 99 *~ 2;
#X obj 341 255 *~;
#X obj 242 258 *~;
#X obj 413 253 *~;
#X obj 661 60 phasor~;
#X obj 661 97 *~ 2;
#X text 425 44 triangle;
#X text 699 42 square;
#X obj 300 294 +~;
#X obj 373 296 +~;
#X obj 438 276 +~;
#X obj 661 261 *~;
#X obj 331 322 outlet~;
#X obj 412 3 inlet;
#X msg 312 229 0;
#X msg 383 226 0;
#X msg 503 221 0;
#X msg 710 232 0;
#X msg 276 227 1;
#X msg 351 226 1;
#X msg 431 219 1;
#X msg 678 231 1;
#X obj 504 8 inlet;
#X obj 556 9 inlet;
#X obj 607 7 inlet;
#X obj 657 6 inlet;
#X obj 419 27 / 2;
#X obj 411 135 expr~ if($v1 < 1 \, $v1 \, -1*($v1 - 1) + 1) \;;
#X obj 682 134 expr~ if($v1 < 1 \, 0 \, 1) \;;
#X connect 0 0 5 0;
#X connect 1 0 4 0;
#X connect 2 0 3 0;
#X connect 3 0 30 0;
#X connect 4 0 12 0;
#X connect 5 0 11 0;
#X connect 6 0 13 0;
#X connect 7 0 8 0;
#X connect 8 0 31 0;
#X connect 11 0 15 0;
#X connect 12 0 11 1;
#X connect 13 0 12 1;
#X connect 14 0 13 1;
#X connect 16 0 0 0;
#X connect 16 0 29 0;
#X connect 16 0 2 0;
#X connect 17 0 5 1;
#X connect 18 0 4 1;
#X connect 19 0 6 1;
#X connect 20 0 14 1;
#X connect 21 0 5 1;
#X connect 22 0 4 1;
#X connect 23 0 6 1;
#X connect 24 0 14 1;
#X connect 25 0 21 0;
#X connect 25 0 18 0;
#X connect 25 0 19 0;
#X connect 25 0 20 0;
#X connect 26 0 17 0;
#X connect 26 0 22 0;
#X connect 26 0 19 0;
#X connect 26 0 20 0;
#X connect 27 0 17 0;
#X connect 27 0 18 0;
#X connect 27 0 20 0;
#X connect 27 0 23 0;
#X connect 28 0 17 0;
#X connect 28 0 18 0;
#X connect 28 0 19 0;
#X connect 28 0 24 0;
#X connect 29 0 1 0;
#X connect 29 0 7 0;
#X connect 30 0 6 0;
#X connect 31 0 14 0;
#X restore 436 -140 pd lfo;
#X text 574 -188 square;
#X floatatom 435 -243 5 0 0 0 - - -;
#X obj 436 -210 *;
#X obj 484 -276 r loadbang;
#X floatatom 436 -174 5 0 0 0 - - -;
#X obj 485 -241 100;
#X obj 435 -276 r knob3;
#X obj 437 -103 s~ lfo;
#X text 434 -305 LFO;
#N canvas 716 331 450 300 nanoKontrol 1;
#X floatatom 121 33 5 0 0 0 - - -;
#X floatatom 173 37 5 0 0 0 - - -;
#X floatatom 250 37 5 0 0 0 - - -;
#X obj 153 9 ctlin;
#X obj 311 58 r loadbang;
#X msg 308 85 18;
#X obj 84 63 r loadbang;
#X msg 81 90 16;
#X obj 232 208 s knob3;
#X obj 29 208 s knob1;
#N canvas 278 351 450 300 ctrl 1;
#X obj 99 200 / 127;
#X obj 61 54 inlet;
#X obj 169 54 inlet;
#X obj 110 54 inlet;
#X obj 98 228 outlet;
#X floatatom 98 171 5 0 0 0 - - -;
#X obj 82 96 expr if($i2 == $i3 \, $i1 \, -1) \;;
#X obj 95 139 moses 0;
#X connect 0 0 4 0;
#X connect 1 0 6 0;
#X connect 2 0 6 2;
#X connect 3 0 6 1;
#X connect 5 0 0 0;
#X connect 6 0 7 0;
#X connect 7 1 5 0;
#X restore 130 126 pd ctrl;
#X obj 184 68 r loadbang;
#X msg 181 95 17;
#X obj 129 213 s knob2;
#N canvas 278 351 450 300 ctrl 0;
#X obj 99 200 / 127;
#X obj 61 54 inlet;
#X obj 169 54 inlet;
#X obj 110 54 inlet;
#X obj 98 228 outlet;
#X floatatom 98 171 5 0 0 0 - - -;
#X obj 82 96 expr if($i2 == $i3 \, $i1 \, -1) \;;
#X obj 95 139 moses 0;
#X connect 0 0 4 0;
#X connect 1 0 6 0;
#X connect 2 0 6 2;
#X connect 3 0 6 1;
#X connect 5 0 0 0;
#X connect 6 0 7 0;
#X connect 7 1 5 0;
#X restore 262 134 pd ctrl;
#N canvas 278 351 450 300 ctrl 0;
#X obj 99 200 / 127;
#X obj 61 54 inlet;
#X obj 169 54 inlet;
#X obj 110 54 inlet;
#X obj 98 228 outlet;
#X floatatom 98 171 5 0 0 0 - - -;
#X obj 82 96 expr if($i2 == $i3 \, $i1 \, -1) \;;
#X obj 95 139 moses 0;
#X connect 0 0 4 0;
#X connect 1 0 6 0;
#X connect 2 0 6 2;
#X connect 3 0 6 1;
#X connect 5 0 0 0;
#X connect 6 0 7 0;
#X connect 7 1 5 0;
#X restore 30 126 pd ctrl;
#X obj 391 60 r loadbang;
#N canvas 278 351 450 300 ctrl 0;
#X obj 99 200 / 127;
#X obj 61 54 inlet;
#X obj 169 54 inlet;
#X obj 110 54 inlet;
#X obj 98 228 outlet;
#X floatatom 98 171 5 0 0 0 - - -;
#X obj 82 96 expr if($i2 == $i3 \, $i1 \, -1) \;;
#X obj 95 139 moses 0;
#X connect 0 0 4 0;
#X connect 1 0 6 0;
#X connect 2 0 6 2;
#X connect 3 0 6 1;
#X connect 5 0 0 0;
#X connect 6 0 7 0;
#X connect 7 1 5 0;
#X restore 342 136 pd ctrl;
#X msg 388 87 19;
#X obj 312 210 s knob4;
#X connect 0 0 10 0;
#X connect 0 0 14 0;
#X connect 0 0 15 0;
#X connect 0 0 17 0;
#X connect 1 0 10 1;
#X connect 1 0 14 1;
#X connect 1 0 15 1;
#X connect 1 0 17 1;
#X connect 3 0 0 0;
#X connect 3 1 1 0;
#X connect 3 2 2 0;
#X connect 4 0 5 0;
#X connect 5 0 14 2;
#X connect 6 0 7 0;
#X connect 7 0 15 2;
#X connect 10 0 13 0;
#X connect 11 0 12 0;
#X connect 12 0 10 2;
#X connect 14 0 8 0;
#X connect 15 0 9 0;
#X connect 16 0 18 0;
#X connect 17 0 19 0;
#X connect 18 0 17 2;
#X restore 1014 -249 pd nanoKontrol;
#X obj 313 -305 r vcoFreq;
#X obj 263 -280 *;
#X floatatom 263 -255 5 0 0 0 - - -;
#X obj 637 -309 cnv 15 150 200 empty empty empty 20 12 0 14 -262130
-66577 0;
#X obj 649 -189 *~;
#X obj 651 -159 dac~;
#X obj 649 -271 r~ vcf;
#X obj 708 -272 r~ lfo;
#X obj 649 -231 *~;
#X obj 708 -238 r knob4;
#X floatatom 708 -216 5 0 0 0 - - -;
#X text 643 -304 VCA;
#X obj 135 -307 r loadbang;
#X obj 557 -276 r loadbang;
#X obj 796 -309 cnv 15 200 350 empty empty empty 20 12 0 14 -204786
-66577 0;
#X obj 848 10 s vcoFreq;
#X floatatom 848 -14 5 0 0 0 - - -;
#X obj 848 -152 arduino;
#X msg 850 -285 devices;
#X msg 862 -256 close;
#X msg 799 -255 open \$1;
#X obj 848 -76 route 0;
#X obj 848 -43 *;
#X text 933 -84 max_frea;
#X obj 927 -100 r loadbang;
#X msg 927 -66 2000;
#X text 806 -306 Arduino;
#X msg 861 -98 0;
#X msg 896 -99 1;
#X msg 799 -279 1;
#X msg 878 -221 pinMode 14 analog;
#X msg 881 -189 pinMode 15 analog;
#X obj 848 -123 route analog;
#X connect 0 0 1 0;
#X connect 2 0 1 0;
#X connect 4 0 16 0;
#X connect 5 0 4 1;
#X connect 6 0 4 2;
#X connect 7 0 4 3;
#X connect 8 0 4 4;
#X connect 9 0 4 0;
#X connect 15 0 9 0;
#X connect 18 0 45 0;
#X connect 19 0 24 0;
#X connect 20 0 19 2;
#X connect 21 0 20 0;
#X connect 22 0 19 0;
#X connect 29 0 33 1;
#X connect 30 0 33 2;
#X connect 31 0 33 3;
#X connect 32 0 33 4;
#X connect 33 0 41 0;
#X connect 35 0 36 0;
#X connect 36 0 38 0;
#X connect 37 0 39 0;
#X connect 38 0 33 0;
#X connect 39 0 36 1;
#X connect 40 0 35 0;
#X connect 44 0 45 1;
#X connect 45 0 46 0;
#X connect 46 0 19 1;
#X connect 48 0 49 0;
#X connect 48 0 49 1;
#X connect 50 0 52 0;
#X connect 51 0 52 1;
#X connect 52 0 48 0;
#X connect 53 0 54 0;
#X connect 54 0 48 1;
#X connect 56 0 5 0;
#X connect 57 0 29 0;
#X connect 60 0 59 0;
#X connect 61 0 76 0;
#X connect 62 0 61 0;
#X connect 63 0 61 0;
#X connect 64 0 61 0;
#X connect 65 0 66 0;
#X connect 66 0 60 0;
#X connect 68 0 69 0;
#X connect 69 0 66 1;
#X connect 71 0 65 1;
#X connect 72 0 65 1;
#X connect 73 0 64 0;
#X connect 74 0 61 0;
#X connect 75 0 61 0;
#X connect 76 0 65 0;
